HIERARCHY
ROOT Hips
{
    OFFSET   0.000000   0.000000   0.000000
    CHANNELS 6 Xposition Yposition Zposition Zrotation Xrotation Yrotation
    JOINT Chest
    {
        OFFSET   0.000000   8.007230   0.000000
        CHANNELS 3 Zrotation Xrotation Yrotation
        JOINT Chest2
        {
            OFFSET   0.000000  22.077100   0.000000
            CHANNELS 3 Zrotation Xrotation Yrotation
            JOINT Neck
            {
                OFFSET   0.000000  23.255100   0.000000
                CHANNELS 3 Zrotation Xrotation Yrotation
                JOINT Head
                {
                    OFFSET   0.000000  14.370100   1.956600
                    CHANNELS 3 Zrotation Xrotation Yrotation
                    End Site
                    {
                        OFFSET   0.000000  19.566000   0.000000
                    }
                }
            }
            JOINT LeftCollar
            {
                OFFSET   3.911900  19.017000  -0.467063
                CHANNELS 3 Zrotation Xrotation Yrotation
                JOINT LeftShoulder
                {
                    OFFSET  10.383700   0.000000   0.000000
                    CHANNELS 3 Zrotation Xrotation Yrotation
                    JOINT LeftElbow
                    {
                        OFFSET  26.662100   0.001193   0.000980
                        CHANNELS 3 Zrotation Xrotation Yrotation
                        JOINT LeftWrist
                        {
                            OFFSET  28.869000  -0.000059  -0.000082
                            CHANNELS 3 Zrotation Xrotation Yrotation
                            JOINT LeftFinger0
                            {
                                OFFSET   2.044650  -2.323450   3.252850
                                CHANNELS 3 Zrotation Xrotation Yrotation
                                JOINT LeftFinger01
                                {
                                    OFFSET   3.088130   0.000000   0.000000
                                    CHANNELS 3 Zrotation Xrotation Yrotation
                                    JOINT LeftFinger02
                                    {
                                        OFFSET   2.639460   0.000000   0.000000
                                        CHANNELS 3 Zrotation Xrotation Yrotation
                                        End Site
                                        {
                                            OFFSET   2.582190   0.000000   0.000000
                                        }
                                    }
                                }
                            }
                            JOINT LeftFinger1
                            {
                                OFFSET   8.364480   0.000000   3.252850
                                CHANNELS 3 Zrotation Xrotation Yrotation
                                JOINT LeftFinger11
                                {
                                    OFFSET   4.646930   0.000000   0.000000
                                    CHANNELS 3 Zrotation Xrotation Yrotation
                                    JOINT LeftFinger12
                                    {
                                        OFFSET   2.323470   0.000000   0.000000
                                        CHANNELS 3 Zrotation Xrotation Yrotation
                                        End Site
                                        {
                                            OFFSET   2.273050   0.000000   0.000000
                                        }
                                    }
                                }
                            }
                            JOINT LeftFinger2
                            {
                                OFFSET   8.364490   0.000016   1.078090
                                CHANNELS 3 Zrotation Xrotation Yrotation
                                JOINT LeftFinger21
                                {
                                    OFFSET   5.111610   0.000000   0.000000
                                    CHANNELS 3 Zrotation Xrotation Yrotation
                                    JOINT LeftFinger22
                                    {
                                        OFFSET   2.788150   0.000016   0.000000
                                        CHANNELS 3 Zrotation Xrotation Yrotation
                                        End Site
                                        {
                                            OFFSET   2.727660   0.000000   0.000000
                                        }
                                    }
                                }
                            }
                            JOINT LeftFinger3
                            {
                                OFFSET   7.899780   0.000015  -1.078090
                                CHANNELS 3 Zrotation Xrotation Yrotation
                                JOINT LeftFinger31
                                {
                                    OFFSET   4.646930   0.000000   0.000000
                                    CHANNELS 3 Zrotation Xrotation Yrotation
                                    JOINT LeftFinger32
                                    {
                                        OFFSET   2.323470   0.000000   0.000000
                                        CHANNELS 3 Zrotation Xrotation Yrotation
                                        End Site
                                        {
                                            OFFSET   2.273050   0.000000   0.000000
                                        }
                                    }
                                }
                            }
                            JOINT LeftFinger4
                            {
                                OFFSET   7.435090   0.000000  -3.252850
                                CHANNELS 3 Zrotation Xrotation Yrotation
                                JOINT LeftFinger41
                                {
                                    OFFSET   3.717550   0.000000   0.000000
                                    CHANNELS 3 Zrotation Xrotation Yrotation
                                    JOINT LeftFinger42
                                    {
                                        OFFSET   1.858770   0.000000   0.000000
                                        CHANNELS 3 Zrotation Xrotation Yrotation
                                        End Site
                                        {
                                            OFFSET   1.818440   0.000000   0.000000
                                        }
                                    }
                                }
                            }
                        }
                    }
                }
            }
            JOINT RightCollar
            {
                OFFSET  -3.911910  19.017000  -0.467062
                CHANNELS 3 Zrotation Xrotation Yrotation
                JOINT RightShoulder
                {
                    OFFSET -10.383700   0.000014   0.000000
                    CHANNELS 3 Zrotation Xrotation Yrotation
                    JOINT RightElbow
                    {
                        OFFSET -26.662100   0.001225   0.001091
                        CHANNELS 3 Zrotation Xrotation Yrotation
                        JOINT RightWrist
                        {
                            OFFSET -28.869000  -0.000020  -0.000085
                            CHANNELS 3 Zrotation Xrotation Yrotation
                            JOINT RightFinger0
                            {
                                OFFSET  -2.044650  -2.323490   3.252850
                                CHANNELS 3 Zrotation Xrotation Yrotation
                                JOINT RightFinger01
                                {
                                    OFFSET  -3.088130   0.000000   0.000000
                                    CHANNELS 3 Zrotation Xrotation Yrotation
                                    JOINT RightFinger02
                                    {
                                        OFFSET  -2.639460   0.000000   0.000000
                                        CHANNELS 3 Zrotation Xrotation Yrotation
                                        End Site
                                        {
                                            OFFSET  -2.582190   0.000000   0.000000
                                        }
                                    }
                                }
                            }
                            JOINT RightFinger1
                            {
                                OFFSET  -8.364480   0.000000   3.252850
                                CHANNELS 3 Zrotation Xrotation Yrotation
                                JOINT RightFinger11
                                {
                                    OFFSET  -4.646930   0.000000   0.000000
                                    CHANNELS 3 Zrotation Xrotation Yrotation
                                    JOINT RightFinger12
                                    {
                                        OFFSET  -2.323470   0.000000   0.000000
                                        CHANNELS 3 Zrotation Xrotation Yrotation
                                        End Site
                                        {
                                            OFFSET  -2.273050   0.000000   0.000000
                                        }
                                    }
                                }
                            }
                            JOINT RightFinger2
                            {
                                OFFSET  -8.364480   0.000000   1.078090
                                CHANNELS 3 Zrotation Xrotation Yrotation
                                JOINT RightFinger21
                                {
                                    OFFSET  -5.111620   0.000000   0.000000
                                    CHANNELS 3 Zrotation Xrotation Yrotation
                                    JOINT RightFinger22
                                    {
                                        OFFSET  -2.788160   0.000000   0.000000
                                        CHANNELS 3 Zrotation Xrotation Yrotation
                                        End Site
                                        {
                                            OFFSET  -2.727660   0.000000   0.000000
                                        }
                                    }
                                }
                            }
                            JOINT RightFinger3
                            {
                                OFFSET  -7.899780   0.000000  -1.078090
                                CHANNELS 3 Zrotation Xrotation Yrotation
                                JOINT RightFinger31
                                {
                                    OFFSET  -4.646930   0.000000   0.000000
                                    CHANNELS 3 Zrotation Xrotation Yrotation
                                    JOINT RightFinger32
                                    {
                                        OFFSET  -2.323470   0.000000   0.000000
                                        CHANNELS 3 Zrotation Xrotation Yrotation
                                        End Site
                                        {
                                            OFFSET  -2.273050   0.000000   0.000000
                                        }
                                    }
                                }
                            }
                            JOINT RightFinger4
                            {
                                OFFSET  -7.435090   0.000000  -3.252850
                                CHANNELS 3 Zrotation Xrotation Yrotation
                                JOINT RightFinger41
                                {
                                    OFFSET  -3.717550   0.000000   0.000000
                                    CHANNELS 3 Zrotation Xrotation Yrotation
                                    JOINT RightFinger42
                                    {
                                        OFFSET  -1.858760   0.000000   0.000000
                                        CHANNELS 3 Zrotation Xrotation Yrotation
                                        End Site
                                        {
                                            OFFSET  -1.818440   0.000000   0.000000
                                        }
                                    }
                                }
                            }
                        }
                    }
                }
            }
        }
    }
    JOINT LeftHip
    {
        OFFSET   9.783030   0.000000   0.000000
        CHANNELS 3 Zrotation Xrotation Yrotation
        JOINT LeftKnee
        {
            OFFSET   0.000063 -41.789100   0.000608
            CHANNELS 3 Zrotation Xrotation Yrotation
            JOINT LeftAnkle
            {
                OFFSET   0.000048 -41.133200  -0.000184
                CHANNELS 3 Zrotation Xrotation Yrotation
                JOINT LeftToe
                {
                    OFFSET   0.000000  -6.358960  14.674500
                    CHANNELS 3 Zrotation Xrotation Yrotation
                    End Site
                    {
                        OFFSET   0.000000   0.000000   3.913200
                    }
                }
            }
        }
    }
    JOINT RightHip
    {
        OFFSET  -9.783030   0.000000   0.000000
        CHANNELS 3 Zrotation Xrotation Yrotation
        JOINT RightKnee
        {
            OFFSET   0.000071 -41.789100   0.001239
            CHANNELS 3 Zrotation Xrotation Yrotation
            JOINT RightAnkle
            {
                OFFSET   0.000037 -41.133200  -0.000166
                CHANNELS 3 Zrotation Xrotation Yrotation
                JOINT RightToe
                {
                    OFFSET   0.000000  -6.358960  14.674500
                    CHANNELS 3 Zrotation Xrotation Yrotation
                    End Site
                    {
                        OFFSET   0.000000   0.000000   3.913200
                    }
                }
            }
        }
    }
}
MOTION
Frames: 4
Frame Time:   0.016667
  1.189470  89.802600   1.329230  -0.793948  -3.935460   0.451191   0.220831   4.106770  -0.804761   0.501576   8.209980  -1.631730   0.270054  -1.727420   0.008705   0.456580  -3.502370   5.332480  -8.874160  -2.913880   5.689600 -67.038000  22.414800  -0.280026  -3.791220  -6.248180 -18.318200  11.908700 -13.538400   8.350130  74.563800  50.970100 -110.665000  -3.531810  -0.000637  -0.000000   3.234100   0.000000   0.002722 -32.531600   4.176350  -6.513570 -26.811300  -0.005286  -0.002324 -18.755100  -0.002367  -0.003327 -28.567800  -3.755090   6.845550 -43.126600   0.007465  -0.000112 -28.722300  -0.005852   0.000000 -28.175300  -3.696160   6.871070 -35.038000  -0.006827  -0.001103 -23.335400  -0.002856  -0.007334 -31.522100  -4.112250   6.642610 -47.640500  -0.000090  -0.002232 -31.729600   0.003354  -0.006511  11.856300   1.469680  12.729100  64.103700  11.936600  -5.802120   1.874980  -4.195550  16.195400 -15.989900 -18.526700  -7.674000 -40.275600  31.715400  71.841700  24.035600   0.005857  -0.006094   7.005260   0.002480  -0.004547  36.026400  -1.524440  -2.095020  29.498900   0.006623  -0.005742  20.649300   0.009939  -0.005048  28.707700  -1.863640  -3.398940  40.513200   0.000000   0.001491  26.981800   0.003621   0.000902  28.649300  -1.860270  -3.400790  39.094600  -0.007929   0.001255  26.037000   0.000558   0.000915  31.752900  -2.041920  -3.295000  47.717500  -0.002594   0.000547  31.779800   0.002022  -0.006963   0.272242   3.693360   4.253080   0.529764   1.262770  11.149700  -2.716580  -2.501710   4.312670   0.000000   0.000000   0.000000   2.755260   3.415020  -7.213370  -2.084820   3.831280 -10.414600  -3.693730  -1.828990   4.694560   0.000000   0.000000   0.000000
  1.183650  89.802600   1.329200  -0.793102  -3.935290   0.461850   0.220946   4.107060  -0.804816   0.501808   8.210550  -1.631860   0.273170  -1.727870   0.008673   0.459918  -3.503320   5.340280  -8.873440  -2.918730   5.699510 -67.042900  22.442300  -0.279604  -3.796820  -6.265140 -18.318800  11.908300 -13.518900   8.346020  74.589300  50.970100 -110.665000  -3.517760  -0.000649  -0.000000   3.241130   0.000000   0.002749 -32.519500   4.184850  -6.530340 -26.802200  -0.005292  -0.002316 -18.755100  -0.002367  -0.003317 -28.567700  -3.755120   6.845630 -43.112100   0.007466  -0.000118 -28.712700  -0.005853   0.000000 -28.175200  -3.696190   6.871140 -35.038000  -0.006828  -0.001082 -23.335400  -0.002858  -0.007332 -31.521700  -4.112260   6.642720 -47.640500  -0.000092  -0.002208 -31.729300   0.003359  -0.006508  11.856300   1.469910  12.728700  64.104100  11.937400  -5.801190   1.874920  -4.201950  16.175000 -15.993500 -18.539500  -7.676320 -40.256100  31.701900  71.856500  24.035000   0.005838  -0.006080   7.005350   0.002464  -0.004537  36.049100  -1.535400  -2.107810  29.517900   0.006601  -0.005720  20.662500   0.009931  -0.005032  28.706600  -1.872450  -3.414820  40.554800  -0.000023   0.001507  27.009500   0.003635   0.000910  28.648300  -1.869100  -3.416660  39.133000  -0.007923   0.001225  26.062500   0.000558   0.000896  31.780200  -2.053270  -3.309340  47.759200  -0.002582   0.000532  31.807600   0.002016  -0.006992   0.275401   3.750470   4.252970   0.523380   1.210520  11.150200  -2.720130  -2.501290   4.307750   0.000000   0.000000  -0.000000   2.762100   3.414620  -7.213450  -2.084600   3.832360 -10.414900  -3.697730  -1.829540   4.684510  -0.000000   0.000000   0.000000
  1.173570  89.802500   1.329160  -0.791954  -3.935120   0.476927   0.221086   4.109040  -0.804874   0.502139   8.214540  -1.632000   0.279131  -1.731050   0.008641   0.466383  -3.510240   5.348120  -8.871860  -2.928350   5.716620 -67.053700  22.478300  -0.279199  -3.802410  -6.282110 -18.319400  11.912300 -13.499500   8.336040  74.614800  50.970100 -110.665000  -3.495570  -0.000668   0.000000   3.252220   0.000000   0.002787 -32.506700   4.197050  -6.551750 -26.793000  -0.005308  -0.002293 -18.755100  -0.002370  -0.003292 -28.567600  -3.755190   6.845760 -43.097700   0.007470  -0.000133 -28.703000  -0.005855   0.000000 -28.175100  -3.696250   6.871250 -35.038000  -0.006832  -0.001029 -23.335400  -0.002862  -0.007328 -31.521400  -4.112300   6.642900 -47.640500  -0.000100  -0.002149 -31.728900   0.003373  -0.006501  11.856400   1.470150  12.725600  64.107100  11.943100  -5.794670   1.875990  -4.215190  16.144000 -15.997100 -18.552400  -7.678640 -40.228000  31.686700  71.890700  24.031200   0.005781  -0.006049   7.005430   0.002430  -0.004505  36.084000  -1.546360  -2.120600  29.546700   0.006546  -0.005666  20.682700   0.009911  -0.004994  28.705600  -1.881260  -3.430700  40.614800  -0.000064   0.001543  27.049400   0.003659   0.000934  28.647400  -1.877920  -3.432530  39.181000  -0.007909   0.001150  26.094500   0.000558   0.000849  31.813600  -2.064620  -3.323680  47.810300  -0.002551   0.000493  31.841700   0.002000  -0.007059   0.281219   3.828600   4.252970   0.518200   1.138530  11.150700  -2.726730  -2.500100   4.299920  -0.000000   0.000000  -0.000000   2.772830   3.414220  -7.213560  -2.083960   3.835510 -10.415200  -3.705730  -1.831370   4.669370  -0.000000   0.000000   0.000000
  1.164660  89.802400   1.329130  -0.791768  -3.935160   0.483214   0.219619   4.113760  -0.804816   0.499279   8.223990  -1.631870   0.285685  -1.740130   0.008705   0.473585  -3.528690   5.345070  -8.870020  -2.938390   5.731450 -67.065900  22.483900  -0.281737  -3.799640  -6.274160 -18.314400  11.928600 -13.502600   8.321820  74.590000  50.976000 -110.663000  -3.477090  -0.000679   0.000042   3.261450  -0.000053   0.002803 -32.516300   4.201260  -6.555280 -26.801300  -0.005333  -0.002253 -18.760900  -0.002375  -0.003255 -28.567500  -3.755310   6.845890 -43.114100   0.007476  -0.000156 -28.713900  -0.005859  -0.000000 -28.175000  -3.696350   6.871360 -35.042200  -0.006840  -0.000946 -23.338100  -0.002868  -0.007321 -31.521500  -4.112360   6.643080 -47.640700  -0.000111  -0.002060 -31.729000   0.003396  -0.006490  11.855800   1.469790  12.716300  64.113800  11.965400  -5.774480   1.881630  -4.236000  16.130300 -15.976600 -18.551300  -7.669010 -40.213900  31.688200  71.942900  24.019300   0.005681  -0.006010   7.005350   0.002392  -0.004444  36.107800  -1.544520  -2.116810  29.565800   0.006461  -0.005583  20.696100   0.009879  -0.004935  28.705800  -1.879560  -3.427500  40.646500  -0.000104   0.001593  27.070500   0.003679   0.000975  28.647800  -1.876210  -3.429330  39.192200  -0.007886   0.001034  26.102000   0.000558   0.000776  31.820800  -2.063070  -3.320370  47.821200  -0.002504   0.000434  31.849000   0.001975  -0.007159   0.287378   3.851700   4.253440   0.519870   1.115860  11.150500  -2.733790  -2.498510   4.294630  -0.000000   0.000000   0.000000   2.780000   3.414400  -7.213630  -2.082780   3.841200 -10.414500  -3.715550  -1.835420   4.662720   0.000000   0.000000  -0.000000
